<svg version="1" xmlns="http://www.w3.org/2000/svg" width="512" height="512" viewBox="0 0 384.000000 384.000000"><path d="M64.2 120c-4 .5-8.4 1.1-9.7 1.4l-2.5.6v132l2.8.7c5.5 1.5 41.3.8 48.9-.9 14.6-3.3 23.7-9.6 29.4-20 3.3-6 3.4-6.7 3.4-16.8 0-9-.3-11.2-2.3-15.2-3.3-6.8-9.7-12.6-17.6-16.3l-7-3.3 4.3-2.1c6.1-3.2 11.9-8.8 14.9-14.5 2.2-4.3 2.7-6.4 2.7-13.1 0-6.8-.4-8.9-2.9-13.8-7.8-16.1-29.4-22.3-64.4-18.7zm35.9 14.5c8.3 3 12.4 7.6 14 16 1.8 9.7-3.6 19.2-13.3 23.6-4.5 2-7.3 2.4-18.6 2.7l-13.2.4.2-21.9.3-21.8 5-.7c7-.9 20.8 0 25.6 1.7zm-5.6 56.6c8.9 1.5 17.3 6.5 20.9 12.3 3.5 5.5 4.5 13.6 2.6 20.5-1.5 5.7-7.7 12.3-14.1 15.1-6 2.5-18.6 3.9-27.9 3.1l-6.5-.6-.3-24.5c-.1-13.4 0-25 .3-25.7.6-1.6 16.2-1.8 25-.2zM188.5 157.4c-24.6 6.1-39.3 34.4-33.1 63.7 4.5 21 19.6 33.9 42 35.5 11.5.9 31.4-2.3 34.9-5.6.5-.4.3-3.3-.4-6.5-1.1-5-1.5-5.6-3.3-5-10.1 2.8-14.3 3.5-22.1 3.6-4.9.1-11-.4-13.4-1.1-12.3-3.3-20.6-13.7-21.8-27.1l-.6-5.9 33.9-.2 33.9-.3.3-6c.4-7-1.9-18-5.2-25.2-7.7-16.5-26.1-24.6-45.1-19.9zm18.3 12.8c7.6 2.3 13.6 11.2 14.9 21.9l.6 4.9h-51.5l.6-3.5c1.7-8.8 8.4-18.8 14.9-22.1 6-3.1 12.9-3.5 20.5-1.2zM299.7 157c-8.4 2.2-16.3 7.5-21.4 14.5l-2.2 3-.1-3.6c0-2-.3-5.7-.6-8.3l-.7-4.6h-15l.6 12.7c.4 7.1.7 28.9.7 48.5V255h17v-31.3c0-35 .3-37.2 6.6-44.5 4.7-5.6 10.9-8.4 18.3-8.3 12.8 0 19.7 6.7 22.1 21.2.5 3.5 1 19.1 1 34.6V255h17.1l-.3-35.3c-.4-31.3-.6-35.8-2.3-40.2-3.8-10.2-9.8-17-18.4-20.7-5.3-2.3-16.8-3.2-22.4-1.8z"/></svg>